<?xml version="1.0" encoding="UTF-8"?>
<svg width="16px" height="16px" viewBox="0 0 16 16" version="1.1" xmlns="http://www.w3.org/2000/svg" xmlns:xlink="http://www.w3.org/1999/xlink">
    <!-- Generator: Sketch 53.2 (72643) - https://sketchapp.com -->
    <title>icon/16x/profile/add-deep-blue</title>
    <desc>Created with Sketch.</desc>
    <g id="icon/16x/profile/add-deep-blue" stroke="none" stroke-width="1" fill="none" fill-rule="evenodd">
        <g id="icon/16x/input/error" transform="translate(4.000000, 4.000000)" fill="#142FDD" fill-rule="nonzero">
            <path d="M5,3 L7,3 C7.55228475,3 8,3.44771525 8,4 C8,4.55228475 7.55228475,5 7,5 L5,5 L5,7 C5,7.55228475 4.55228475,8 4,8 C3.44771525,8 3,7.55228475 3,7 L3,5 L1,5 C0.44771525,5 1.28867715e-16,4.55228475 6.123234e-17,4 C-6.40303515e-18,3.44771525 0.44771525,3 1,3 L3,3 L3,1 C3,0.44771525 3.44771525,1.01453063e-16 4,0 C4.55228475,-1.01453063e-16 5,0.44771525 5,1 L5,3 Z" id="Combined-Shape" transform="translate(4.000000, 4.000000) rotate(-360.000000) translate(-4.000000, -4.000000) "></path>
        </g>
    </g>
</svg>