<?xml version="1.0" encoding="UTF-8"?>
<svg width="16px" height="16px" viewBox="0 0 16 16" version="1.1" xmlns="http://www.w3.org/2000/svg" xmlns:xlink="http://www.w3.org/1999/xlink">
    <!-- Generator: Sketch 53.2 (72643) - https://sketchapp.com -->
    <title>icon/16x/input/close-deep-blue</title>
    <desc>Created with Sketch.</desc>
    <g id="icon/16x/input/close-deep-blue" stroke="none" stroke-width="1" fill="none" fill-rule="evenodd">
        <g id="icon/16x/input/error" transform="translate(2.000000, 2.000000)" fill="#142FDD" fill-rule="nonzero">
            <path d="M7,5 L9,5 C9.55228475,5 10,5.44771525 10,6 C10,6.55228475 9.55228475,7 9,7 L7,7 L7,9 C7,9.55228475 6.55228475,10 6,10 C5.44771525,10 5,9.55228475 5,9 L5,7 L3,7 C2.44771525,7 2,6.55228475 2,6 C2,5.44771525 2.44771525,5 3,5 L5,5 L5,3 C5,2.44771525 5.44771525,2 6,2 C6.55228475,2 7,2.44771525 7,3 L7,5 Z" id="Combined-Shape" transform="translate(6.000000, 6.000000) rotate(-315.000000) translate(-6.000000, -6.000000) "></path>
        </g>
    </g>
</svg>