<?xml version="1.0" encoding="UTF-8"?>
<svg width="32px" height="32px" viewBox="0 0 32 32" version="1.1" xmlns="http://www.w3.org/2000/svg" xmlns:xlink="http://www.w3.org/1999/xlink">
    <!-- Generator: Sketch 53.2 (72643) - https://sketchapp.com -->
    <title>icon/40x40/facebook</title>
    <desc>Created with Sketch.</desc>
    <g id="icon/40x40/facebook" stroke="none" stroke-width="1" fill="none" fill-rule="evenodd">
        <g>
            <rect id="mask" fill-rule="nonzero" x="0" y="0" width="32" height="32"></rect>
            <path d="M19.8083333,18.2666667 L22.4166667,18.2666667 L22.8055556,15.2388889 L22.8055556,15.2333333 L19.8083333,15.2333333 L19.8083333,13.3111111 C19.8083333,12.4361111 20.0527778,11.8388889 21.3055556,11.8388889 L22.8944444,11.8388889 L22.8944444,11.8333333 L22.9,11.8333333 L22.9,9.14444444 C22.8981482,9.14424843 22.8962963,9.14405265 22.8944444,9.14385712 L22.8944444,9.13888889 C22.1212465,9.05704551 21.3441808,9.0171722 20.5666667,9.01944444 C18.2611111,9.01944444 16.6777778,10.4277778 16.6777778,13.0111111 L16.6777778,15.2333333 L14.0861111,15.2333333 L14.0861111,15.2388889 L14.0861111,18.2666667 L16.6833333,18.2666667 L16.6833333,26 L7.11111111,26 C6.49746139,26 6,25.5025386 6,24.8888889 L6,7.11111111 C6,6.49746139 6.49746139,6 7.11111111,6 L24.8888889,6 C25.5025386,6 26,6.49746139 26,7.11111111 L26,24.8888889 C26,25.5025386 25.5025386,26 24.8888889,26 L19.8083333,26 L19.8083333,18.2666667 Z" id="Combined-Shape" fill="#9A9CA8"></path>
        </g>
    </g>
</svg>