<?xml version="1.0" encoding="UTF-8"?>
<svg width="24px" height="24px" viewBox="0 0 24 24" version="1.1" xmlns="http://www.w3.org/2000/svg" xmlns:xlink="http://www.w3.org/1999/xlink">
    <!-- Generator: Sketch 53.2 (72643) - https://sketchapp.com -->
    <title>icon/24x/favorite/default</title>
    <desc>Created with Sketch.</desc>
    <g id="icon/24x/favorite/default" stroke="none" stroke-width="1" fill="none" fill-rule="evenodd">
        <g id="icon/x24/favorite/default" fill="#FFFFFF" fill-rule="nonzero" stroke="#EBECEE" stroke-width="2">
            <path d="M16.4988022,2.99999928 L16.4981897,2.99999836 C15.0925463,2.99745369 13.7244352,3.45349072 12.6014473,4.2989125 L12.0011322,4.75084916 L11.4,4.3 C9.4303853,2.82278897 6.79520781,2.58517517 4.59311163,3.68622326 C2.39101545,4.78727135 1,7.03798162 1,9.5 C1,12.3279397 2.6752561,15.1412413 5.55502925,17.799941 C6.62745411,18.7900383 7.80437925,19.6986368 9.0148376,20.5110862 C9.81933519,21.0510582 10.5193405,21.4704781 11.043,21.7559124 C11.6395855,22.0810123 12.3604145,22.0810123 12.9569039,21.7559648 C13.4806595,21.4704781 14.1806648,21.0510582 14.9851624,20.5110862 C16.1956208,19.6986368 17.3725459,18.7900383 18.4449707,17.799941 C21.3247439,15.1412413 23,12.3279397 23.0000007,9.50119784 C22.995702,5.91246713 20.0875329,3.00429803 16.4988022,2.99999928 Z" id="love_1"></path>
        </g>
    </g>
</svg>