<?xml version="1.0" encoding="UTF-8"?>
<svg width="24px" height="24px" viewBox="0 0 24 24" version="1.1" xmlns="http://www.w3.org/2000/svg" xmlns:xlink="http://www.w3.org/1999/xlink">
    <!-- Generator: Sketch 53.2 (72643) - https://sketchapp.com -->
    <title>icon/24x/filter</title>
    <desc>Created with Sketch.</desc>
    <g id="icon/24x/filter" stroke="none" stroke-width="1" fill="none" fill-rule="evenodd">
        <g fill-rule="nonzero">
            <rect id="mask" x="0" y="0" width="24" height="24"></rect>
            <path d="M18,17 L21.5,17 C21.7761424,17 22,17.2238576 22,17.5 L22,18.5 C22,18.7761424 21.7761424,19 21.5,19 L18,19 L18,20.5 C18,20.7761424 17.7761424,21 17.5,21 L16.5,21 C16.2238576,21 16,20.7761424 16,20.5 L16,15.5 C16,15.2238576 16.2238576,15 16.5,15 L17.5,15 C17.7761424,15 18,15.2238576 18,15.5 L18,17 Z M6,13 L2.5,13 C2.22385763,13 2,12.7761424 2,12.5 L2,11.5 C2,11.2238576 2.22385763,11 2.5,11 L6,11 L6,9.5 C6,9.22385763 6.22385763,9 6.5,9 L7.5,9 C7.77614237,9 8,9.22385763 8,9.5 L8,14.5 C8,14.7761424 7.77614237,15 7.5,15 L6.5,15 C6.22385763,15 6,14.7761424 6,14.5 L6,13 Z M18,5 L21.5,5 C21.7761424,5 22,5.22385763 22,5.5 L22,6.5 C22,6.77614237 21.7761424,7 21.5,7 L18,7 L18,8.5 C18,8.77614237 17.7761424,9 17.5,9 L16.5,9 C16.2238576,9 16,8.77614237 16,8.5 L16,3.5 C16,3.22385763 16.2238576,3 16.5,3 L17.5,3 C17.7761424,3 18,3.22385763 18,3.5 L18,5 Z M14,5 L14,7 L2.5,7 C2.22385763,7 2,6.77614237 2,6.5 L2,5.5 C2,5.22385763 2.22385763,5 2.5,5 L14,5 Z M10,11 L21.5,11 C21.7761424,11 22,11.2238576 22,11.5 L22,12.5 C22,12.7761424 21.7761424,13 21.5,13 L10,13 L10,11 Z M14,17 L14,19 L2.5,19 C2.22385763,19 2,18.7761424 2,18.5 L2,17.5 C2,17.2238576 2.22385763,17 2.5,17 L14,17 Z" fill="#686B7C"></path>
        </g>
    </g>
</svg>