<?xml version="1.0" encoding="UTF-8"?>
<svg width="24px" height="24px" viewBox="0 0 24 24" version="1.1" xmlns="http://www.w3.org/2000/svg" xmlns:xlink="http://www.w3.org/1999/xlink">
    <!-- Generator: Sketch 53.2 (72643) - https://sketchapp.com -->
    <title>icon/24x/file/img</title>
    <desc>Created with Sketch.</desc>
    <g id="icon/24x/file/img" stroke="none" stroke-width="1" fill="none" fill-rule="evenodd">
        <g>
            <rect id="Rectangle" fill-rule="nonzero" x="0" y="0" width="24" height="24"></rect>
            <g id="Group" transform="translate(4.000000, 1.000000)">
                <path d="M1.06451613,-0.5 L11.490652,-0.5 C11.9047162,-0.5 12.3018947,-0.335857092 12.5951525,-0.0435404233 L17.0399844,4.38702689 C17.3344764,4.68057382 17.5,5.07927657 17.5,5.49508344 L17.5,20.9354839 C17.5,21.7995423 16.7995423,22.5 15.9354839,22.5 L1.06451613,22.5 C0.20045773,22.5 -0.5,21.7995423 -0.5,20.9354839 L-0.5,1.06451613 C-0.5,0.20045773 0.20045773,-0.5 1.06451613,-0.5 Z" id="Path" stroke="#EBECEE" fill="#FFFFFF"></path>
                <path d="M7.67361111,13.0698925 L9.88938782,10.8499112 C9.89352197,10.8457692 9.89775794,10.8417302 9.90209187,10.8377977 C10.0472237,10.7061095 10.2716307,10.7170078 10.4033189,10.8621396 L11.8055556,12.4075267 L11.8055556,13.8978495 L7.67361111,13.8978495 L5.19444444,13.8978495 L6.59607565,12.4935586 C6.59623405,12.4933999 6.59639261,12.4932413 6.59655131,12.4930829 C6.73525573,12.3546412 6.95992708,12.3548542 7.0983688,12.4935586 L7.67361111,13.0698925 Z M6.2962963,10.3100358 C5.68776032,10.3100358 5.19444444,9.81578388 5.19444444,9.20609319 C5.19444444,8.5964025 5.68776032,8.10215054 6.2962963,8.10215054 C6.90483227,8.10215054 7.39814815,8.5964025 7.39814815,9.20609319 C7.39814815,9.81578388 6.90483227,10.3100358 6.2962963,10.3100358 Z" id="Combined-Shape" fill="#14B6DD"></path>
            </g>
        </g>
    </g>
</svg>