<?xml version="1.0" encoding="UTF-8"?>
<svg width="32px" height="32px" viewBox="0 0 32 32" version="1.1" xmlns="http://www.w3.org/2000/svg" xmlns:xlink="http://www.w3.org/1999/xlink">
    <!-- Generator: Sketch 53.2 (72643) - https://sketchapp.com -->
    <title>icon/40x40/instagram</title>
    <desc>Created with Sketch.</desc>
    <g id="icon/40x40/instagram" stroke="none" stroke-width="1" fill="none" fill-rule="evenodd">
        <g>
            <rect id="mask" fill-rule="nonzero" x="0" y="0" width="40" height="40"></rect>
            <path d="M16.0000238,4 C19.2590043,4 19.6676571,4.01381388 20.9475847,4.07221326 C22.2248447,4.13046973 23.0971676,4.33334326 23.860456,4.63000828 C24.6495621,4.93662882 25.3187732,5.34694874 25.985936,6.01406396 C26.6530513,6.68122682 27.0633712,7.35043794 27.3700394,8.13954402 C27.6666567,8.90283244 27.8695303,9.77515526 27.9277867,11.0524153 C27.9861861,12.3323429 28,12.7409957 28,16.0000238 C28,19.2590043 27.9861861,19.6676571 27.9277867,20.9475847 C27.8695303,22.2248447 27.6666567,23.0971676 27.3700394,23.860456 C27.0633712,24.6495621 26.6530513,25.3187732 25.985936,25.985936 C25.3187732,26.6530513 24.6495621,27.0633712 23.860456,27.3700394 C23.0971676,27.6666567 22.2248447,27.8695303 20.9475847,27.9277867 C19.6676571,27.9861861 19.2590043,28 16.0000238,28 C12.7409957,28 12.3323429,27.9861861 11.0524153,27.9277867 C9.77515526,27.8695303 8.90283244,27.6666567 8.13954402,27.3700394 C7.35043794,27.0633712 6.68122682,26.6530513 6.01406396,25.985936 C5.34694874,25.3187732 4.93662882,24.6495621 4.63000828,23.860456 C4.33334326,23.0971676 4.13046973,22.2248447 4.07221326,20.9475847 C4.01381388,19.6676571 4,19.2590043 4,16.0000238 C4,12.7409957 4.01381388,12.3323429 4.07221326,11.0524153 C4.13046973,9.77515526 4.33334326,8.90283244 4.63000828,8.13954402 C4.93662882,7.35043794 5.34694874,6.68122682 6.01406396,6.01406396 C6.68122682,5.34694874 7.35043794,4.93662882 8.13954402,4.63000828 C8.90283244,4.33334326 9.77515526,4.13046973 11.0524153,4.07221326 C12.3323429,4.01381388 12.7409957,4 16.0000238,4 Z M16.0000238,6.1621583 C12.7958701,6.1621583 12.4163218,6.17440026 11.1509702,6.23213276 C9.9809821,6.28548292 9.34559117,6.48097316 8.92274348,6.64531072 C8.3626144,6.86299845 7.96286924,7.12303286 7.54297487,7.54297487 C7.12303286,7.96286924 6.86299845,8.3626144 6.64531072,8.92274348 C6.48097316,9.34559117 6.28548292,9.9809821 6.23213276,11.1509702 C6.17440026,12.4163218 6.1621583,12.7958701 6.1621583,16.0000238 C6.1621583,19.2041299 6.17440026,19.5836782 6.23213276,20.8490298 C6.28548292,22.0190179 6.48097316,22.6544088 6.64531072,23.0772565 C6.86299845,23.6373856 7.1230805,24.0371308 7.54297487,24.4570251 C7.96286924,24.8769671 8.3626144,25.1370016 8.92274348,25.3546893 C9.34559117,25.5190268 9.9809821,25.7145171 11.1509702,25.7678672 C12.4161789,25.8255997 12.795632,25.8378417 16.0000238,25.8378417 C19.204368,25.8378417 19.5838687,25.8255997 20.8490298,25.7678672 C22.0190179,25.7145171 22.6544088,25.5190268 23.0772565,25.3546893 C23.6373856,25.1370016 24.0371308,24.8769671 24.4570251,24.4570251 C24.8769671,24.0371308 25.1370016,23.6373856 25.3546893,23.0772565 C25.5190268,22.6544088 25.7145171,22.0190179 25.7678672,20.8490298 C25.8255997,19.5836782 25.8378417,19.2041299 25.8378417,16.0000238 C25.8378417,12.7958701 25.8255997,12.4163218 25.7678672,11.1509702 C25.7145171,9.9809821 25.5190268,9.34559117 25.3546893,8.92274348 C25.1370016,8.3626144 24.8769671,7.96286924 24.4570251,7.54297487 C24.0371308,7.12303286 23.6373856,6.86299845 23.0772565,6.64531072 C22.6544088,6.48097316 22.0190179,6.28548292 20.8490298,6.23213276 C19.5836782,6.17440026 19.2041299,6.1621583 16.0000238,6.1621583 Z M16.0000238,20 C18.2091493,20 20,18.2091493 20,16.0000238 C20,13.7908507 18.2091493,12 16.0000238,12 C13.7908507,12 12,13.7908507 12,16.0000238 C12,18.2091493 13.7908507,20 16.0000238,20 Z M16.0000238,9.8378417 C19.4032879,9.8378417 22.1621583,12.5967121 22.1621583,16.0000238 C22.1621583,19.4032879 19.4032879,22.1621583 16.0000238,22.1621583 C12.5967121,22.1621583 9.8378417,19.4032879 9.8378417,16.0000238 C9.8378417,12.5967121 12.5967121,9.8378417 16.0000238,9.8378417 Z M23.8456418,9.59438394 C23.8456418,10.3896825 23.2009146,11.034362 22.4056161,11.034362 C21.6103652,11.034362 20.965638,10.3896825 20.965638,9.59438394 C20.965638,8.79908543 21.6103652,8.15435822 22.4056161,8.15435822 C23.2009146,8.15435822 23.8456418,8.79908543 23.8456418,9.59438394 Z" id="Combined-Shape" fill="#9A9CA8"></path>
        </g>
    </g>
</svg>