<svg xmlns="http://www.w3.org/2000/svg" width="136" height="27" viewBox="0 0 136 27">
    <defs>
        <linearGradient id="a" x1="50%" y1="50%" y2="100%">
            <stop offset="0%" stop-color="#142FDD"/>
            <stop offset="100%" stop-color="#D0D5F8"/>
        </linearGradient>
    </defs>
    <g fill="none" fill-rule="evenodd">
        <g fill="url(#a)">
            <path d="M11.57 3.745a2.873 2.873 0 0 0-5.14 0l-3.972 7.941a2.873 2.873 0 0 0 2.57 4.159h7.942a2.873 2.873 0 0 0 2.57-4.159l-3.97-7.941zm1.927-.964l3.971 7.942a5.028 5.028 0 0 1-2.249 6.746c-.698.35-3.938.531-4.719.531H5.028a5.028 5.028 0 0 1-4.497-7.277L4.5 2.78a5.028 5.028 0 0 1 8.996 0z"/>
            <path stroke="#FFF" stroke-width="3" d="M15.478 10.415a1.373 1.373 0 0 0-2.457 0l-3.97 7.942a1.373 1.373 0 0 0 1.227 1.988h7.942a1.373 1.373 0 0 0 1.229-1.988l-3.971-7.942zm4.61-2.305l3.972 7.942a6.528 6.528 0 0 1-5.84 9.448h-7.942a6.528 6.528 0 0 1-5.839-9.448L8.41 8.11a6.528 6.528 0 0 1 11.679 0z"/>
        </g>
        <path fill="#142FDD" fill-rule="nonzero" d="M42.416 8.72c-.256-1.36-1.216-2.04-2.88-2.04-.816 0-1.452.164-1.908.492-.456.328-.684.724-.684 1.188 0 .464.148.828.444 1.092.296.264.756.508 1.38.732l3.384 1.32c1.152.448 2.04 1.012 2.664 1.692.624.68.936 1.532.936 2.556 0 1.408-.528 2.524-1.584 3.348-1.056.824-2.56 1.236-4.512 1.236-1.728 0-3.128-.424-4.2-1.272-1.2-.928-1.832-2.24-1.896-3.936h2.808c0 1.28.664 2.088 1.992 2.424.4.112.928.168 1.584.168s1.264-.164 1.824-.492c.56-.328.84-.768.84-1.32s-.152-.976-.456-1.272c-.304-.296-.8-.572-1.488-.828l-3.096-1.224c-1.2-.464-2.12-1.008-2.76-1.632-.64-.624-.96-1.488-.96-2.592 0-1.296.504-2.32 1.512-3.072 1.024-.784 2.412-1.176 4.164-1.176 1.752 0 3.104.404 4.056 1.212.952.808 1.5 1.94 1.644 3.396h-2.808zm9.968 4.464c.928 0 2 .152 3.216.456v-1.152c0-.816-.164-1.42-.492-1.812-.328-.392-.864-.588-1.608-.588-.744 0-1.316.148-1.716.444-.4.296-.6.716-.6 1.26h-3.096c0-1.328.468-2.288 1.404-2.88.936-.592 2.244-.888 3.924-.888 2.4 0 3.952.84 4.656 2.52.24.576.36 1.256.36 2.04V20H55.96l-.216-1.56c-.752 1.264-1.904 1.896-3.456 1.896-1.504 0-2.672-.368-3.504-1.104-.768-.704-1.152-1.596-1.152-2.676s.424-1.912 1.272-2.496c.848-.584 2.008-.876 3.48-.876zM55.6 15.44c-.944-.256-1.824-.384-2.64-.384-1.536 0-2.304.512-2.304 1.536 0 .432.176.804.528 1.116.352.312.916.468 1.692.468.776 0 1.416-.26 1.92-.78s.772-1.172.804-1.956zm8.744-5.088c.768-1.552 2-2.328 3.696-2.328 1.44 0 2.524.472 3.252 1.416.728.944 1.092 2.192 1.092 3.744V20h-2.832v-6.816c0-.864-.208-1.516-.624-1.956-.416-.44-1-.66-1.752-.66s-1.396.336-1.932 1.008c-.536.672-.82 1.68-.852 3.024V20H61.56V8.336h2.472l.312 2.016zM83.12 18.2c-.72 1.424-1.824 2.136-3.312 2.136-1.488 0-2.736-.568-3.744-1.704-1.04-1.184-1.56-2.688-1.56-4.512 0-1.824.496-3.304 1.488-4.44.976-1.104 2.192-1.656 3.648-1.656s2.552.584 3.288 1.752v-6.24h2.856V20h-2.328l-.336-1.8zm-2.952-7.632c-.8 0-1.468.324-2.004.972-.536.648-.804 1.516-.804 2.604s.272 1.964.816 2.628c.544.664 1.232.996 2.064.996.688 0 1.304-.272 1.848-.816.56-.56.84-1.264.84-2.112v-1.512c-.032-.832-.312-1.512-.84-2.04-.48-.48-1.12-.72-1.92-.72zM90.28 8.336l2.352 8.328 2.232-7.68h2.568l2.232 7.704 2.376-8.352h2.832L101.032 20h-2.784l-2.16-6.984L93.976 20h-2.808L87.304 8.336h2.976zm16.4-.024h2.832V20h-2.832V8.312zm-.336-3.744c0-.512.152-.916.456-1.212.304-.296.736-.444 1.296-.444.544 0 .972.148 1.284.444.312.296.468.7.468 1.212s-.156.916-.468 1.212c-.312.296-.74.444-1.284.444-.56 0-.992-.148-1.296-.444-.304-.296-.456-.7-.456-1.212zm11.408 3.456c.736 0 1.396.124 1.98.372a4.602 4.602 0 0 1 1.476.972c.8.768 1.272 1.736 1.416 2.904l-2.856.072a2.625 2.625 0 0 0-.708-1.272c-.344-.336-.74-.504-1.188-.504-.448 0-.832.068-1.152.204-.32.136-.6.348-.84.636-.544.672-.816 1.6-.816 2.784 0 1.184.256 2.076.768 2.676.512.6 1.132.9 1.86.9.728 0 1.256-.172 1.584-.516.328-.344.492-.812.492-1.404h2.856c0 1.28-.424 2.344-1.272 3.192-.864.864-2.072 1.296-3.624 1.296-1.536 0-2.824-.56-3.864-1.68-1.104-1.2-1.656-2.696-1.656-4.488 0-1.888.552-3.4 1.656-4.536 1.04-1.072 2.336-1.608 3.888-1.608zm10.112 2.208c.8-1.472 1.968-2.208 3.504-2.208s2.668.472 3.396 1.416c.728.944 1.092 2.192 1.092 3.744V20h-2.832v-6.816c0-.864-.208-1.516-.624-1.956-.416-.44-1-.66-1.752-.66s-1.396.336-1.932 1.008c-.536.672-.82 1.68-.852 3.024V20h-2.832V3.536h2.832v6.696z"/>
    </g>
</svg>
