<?xml version="1.0" encoding="UTF-8"?>
<svg width="24px" height="24px" viewBox="0 0 24 24" version="1.1" xmlns="http://www.w3.org/2000/svg" xmlns:xlink="http://www.w3.org/1999/xlink">
    <!-- Generator: Sketch 53.2 (72643) - https://sketchapp.com -->
    <title>icon/24x/file/pdf</title>
    <desc>Created with Sketch.</desc>
    <g id="icon/24x/file/pdf" stroke="none" stroke-width="1" fill="none" fill-rule="evenodd">
        <g>
            <rect id="Rectangle" fill-rule="nonzero" x="0" y="0" width="24" height="24"></rect>
            <g id="Group" transform="translate(4.000000, 1.000000)">
                <path d="M1.06451613,-0.5 L11.490652,-0.5 C11.9047162,-0.5 12.3018947,-0.335857092 12.5951525,-0.0435404233 L17.0399844,4.38702689 C17.3344764,4.68057382 17.5,5.07927657 17.5,5.49508344 L17.5,20.9354839 C17.5,21.7995423 16.7995423,22.5 15.9354839,22.5 L1.06451613,22.5 C0.20045773,22.5 -0.5,21.7995423 -0.5,20.9354839 L-0.5,1.06451613 C-0.5,0.20045773 0.20045773,-0.5 1.06451613,-0.5 Z" id="Rectangle" stroke="#EBECEE" fill="#FFFFFF"></path>
                <path d="M5.54398936,11.070024 L5.54398936,10.4298988 L5.90320479,10.4298988 C6.12989029,10.4298988 6.24066157,10.5345384 6.24066157,10.7489705 C6.24066157,10.9372426 6.2046609,11.070024 5.74377327,11.070024 L5.54398936,11.070024 Z M8.14276263,11.9741266 L8.41731715,11.9741266 C8.72391622,11.9741266 9.0376363,11.8829633 9.0376363,11.2059763 C9.0376363,10.5234403 8.7061137,10.4358442 8.41731715,10.4358442 L8.14276263,10.4358442 L8.14276263,11.9741266 Z M5.38574468,12.6519063 L4.93949468,12.6519063 C4.85206449,12.6519063 4.78125,12.5805611 4.78125,12.492965 L4.78125,9.91660947 C4.78125,9.82940975 4.85206449,9.75806452 4.93949468,9.75806452 L5.97006316,9.75806452 C6.58286569,9.75806452 7.01131316,10.1655251 7.01131316,10.7489705 C7.01131316,11.3407395 6.59196476,11.738291 5.96808511,11.738291 L5.54398936,11.738291 L5.54398936,12.492965 C5.54398936,12.5805611 5.47317487,12.6519063 5.38574468,12.6519063 L5.38574468,12.6519063 Z M8.46439495,12.6519063 L7.53826795,12.6519063 C7.45083777,12.6519063 7.38002327,12.5805611 7.38002327,12.492965 L7.38002327,9.91660947 C7.38002327,9.82940975 7.45083777,9.75806452 7.53826795,9.75806452 L8.46439495,9.75806452 C9.3351363,9.75806452 9.81461769,10.2701647 9.81461769,11.2004272 C9.81461769,12.1362388 9.3351363,12.6519063 8.46439495,12.6519063 L8.46439495,12.6519063 Z M10.8507247,12.6519063 L10.4040791,12.6519063 C10.3166489,12.6519063 10.2458344,12.5805611 10.2458344,12.492965 L10.2458344,9.91660947 C10.2458344,9.82940975 10.3166489,9.75806452 10.4040791,9.75806452 L12.0605053,9.75806452 C12.1475399,9.75806452 12.21875,9.82940975 12.21875,9.91660947 L12.21875,10.2808665 C12.21875,10.3684626 12.1475399,10.4394115 12.0605053,10.4394115 L11.0089694,10.4394115 L11.0089694,10.9114791 L11.9560638,10.9114791 C12.043494,10.9114791 12.1143085,10.9824279 12.1143085,11.070024 L12.1143085,11.428732 C12.1143085,11.5159317 12.043494,11.5872769 11.9560638,11.5872769 L11.0089694,11.5872769 L11.0089694,12.492965 C11.0089694,12.5805611 10.9381549,12.6519063 10.8507247,12.6519063 L10.8507247,12.6519063 Z" id="Combined-shape" fill="#DD1460"></path>
            </g>
        </g>
    </g>
</svg>