<svg xmlns="http://www.w3.org/2000/svg" width="27" height="27" viewBox="0 0 27 27">
    <defs>
        <linearGradient id="a" x1="50%" y1="50%" y2="100%">
            <stop offset="0%" stop-color="#142FDD"/>
            <stop offset="100%" stop-color="#D0D5F8"/>
        </linearGradient>
    </defs>
    <g fill="url(#a)" fill-rule="evenodd" transform="translate(-103 -1115)">
        <path d="M114.57 1118.745a2.873 2.873 0 0 0-5.14 0l-3.972 7.941a2.873 2.873 0 0 0 2.57 4.159h7.942a2.873 2.873 0 0 0 2.57-4.159l-3.97-7.941zm1.927-.964l3.971 7.942a5.028 5.028 0 0 1-2.249 6.746c-.698.35-3.938.531-4.719.531h-5.472a5.028 5.028 0 0 1-4.497-7.277l3.97-7.942a5.028 5.028 0 0 1 8.996 0z"/>
        <path stroke="#FFF" stroke-width="3" d="M118.478 1125.415a1.373 1.373 0 0 0-2.457 0l-3.97 7.942a1.373 1.373 0 0 0 1.227 1.988h7.942a1.373 1.373 0 0 0 1.229-1.988l-3.971-7.942zm4.61-2.305l3.972 7.942a6.528 6.528 0 0 1-5.84 9.448h-7.942a6.528 6.528 0 0 1-5.839-9.448l3.971-7.942a6.528 6.528 0 0 1 11.679 0z"/>
    </g>
</svg>
