<?xml version="1.0" encoding="UTF-8"?>
<svg width="24px" height="24px" viewBox="0 0 24 24" version="1.1" xmlns="http://www.w3.org/2000/svg" xmlns:xlink="http://www.w3.org/1999/xlink">
    <!-- Generator: Sketch 53.2 (72643) - https://sketchapp.com -->
    <title>icon/24x/file/text</title>
    <desc>Created with Sketch.</desc>
    <g id="icon/24x/file/text" stroke="none" stroke-width="1" fill="none" fill-rule="evenodd">
        <g>
            <rect id="Rectangle" fill-rule="nonzero" x="0" y="0" width="24" height="24"></rect>
            <g id="Group" transform="translate(4.000000, 1.000000)">
                <path d="M1.06451613,-0.5 L11.490652,-0.5 C11.9047162,-0.5 12.3018947,-0.335857092 12.5951525,-0.0435404233 L17.0399844,4.38702689 C17.3344764,4.68057382 17.5,5.07927657 17.5,5.49508344 L17.5,20.9354839 C17.5,21.7995423 16.7995423,22.5 15.9354839,22.5 L1.06451613,22.5 C0.20045773,22.5 -0.5,21.7995423 -0.5,20.9354839 L-0.5,1.06451613 C-0.5,0.20045773 0.20045773,-0.5 1.06451613,-0.5 Z" id="Rectangle" stroke="#EBECEE" fill="#FFFFFF"></path>
                <path d="M5.19444444,13.483871 C5.19444444,13.255237 5.37198893,13.0698925 5.60573719,13.0698925 L8.91509614,13.0698925 C9.14224685,13.0698925 9.32638889,13.2619235 9.32638889,13.483871 C9.32638889,13.712505 9.1488444,13.8978495 8.91509614,13.8978495 L5.60573719,13.8978495 C5.37858648,13.8978495 5.19444444,13.7058184 5.19444444,13.483871 Z M5.19444444,11.827957 C5.19444444,11.599323 5.38517237,11.4139785 5.60799905,11.4139785 L11.3920009,11.4139785 C11.6204009,11.4139785 11.8055556,11.6060095 11.8055556,11.827957 C11.8055556,12.056591 11.6148276,12.2419355 11.3920009,12.2419355 L5.60799905,12.2419355 C5.37959915,12.2419355 5.19444444,12.0499044 5.19444444,11.827957 Z M5.19444444,10.172043 C5.19444444,9.943409 5.38517237,9.75806452 5.60799905,9.75806452 L11.3920009,9.75806452 C11.6204009,9.75806452 11.8055556,9.95009556 11.8055556,10.172043 C11.8055556,10.400677 11.6148276,10.5860215 11.3920009,10.5860215 L5.60799905,10.5860215 C5.37959915,10.5860215 5.19444444,10.3939905 5.19444444,10.172043 Z M5.19444444,8.51612903 C5.19444444,8.28749502 5.38517237,8.10215054 5.60799905,8.10215054 L11.3920009,8.10215054 C11.6204009,8.10215054 11.8055556,8.29418158 11.8055556,8.51612903 C11.8055556,8.74476304 11.6148276,8.93010753 11.3920009,8.93010753 L5.60799905,8.93010753 C5.37959915,8.93010753 5.19444444,8.73807649 5.19444444,8.51612903 Z" id="Combined-Shape" fill="#142FDD"></path>
            </g>
        </g>
    </g>
</svg>