<?xml version="1.0" encoding="UTF-8"?>
<svg width="32px" height="32px" viewBox="0 0 32 32" version="1.1" xmlns="http://www.w3.org/2000/svg" xmlns:xlink="http://www.w3.org/1999/xlink">
    <!-- Generator: Sketch 53.2 (72643) - https://sketchapp.com -->
    <title>icon/40x40/twitter</title>
    <desc>Created with Sketch.</desc>
    <g id="icon/40x40/twitter" stroke="none" stroke-width="1" fill="none" fill-rule="evenodd">
        <g>
            <rect id="mask" fill-rule="nonzero" x="0" y="0" width="40" height="40"></rect>
            <path d="M12.5300128,26.5146871 C21.5925926,26.5146871 26.5478927,19.0051086 26.5478927,12.4968072 C26.5478927,12.2822478 26.5478927,12.0676884 26.5376756,11.8633461 C27.4980843,11.1685824 28.3358876,10.3001277 29,9.30906769 C28.1213282,9.69731801 27.1711367,9.96296296 26.1698595,10.0855683 C27.1915709,9.47254151 27.9680715,8.51213282 28.3358876,7.35759898 C27.385696,7.91954023 26.3333333,8.32822478 25.2094508,8.55300128 C24.3103448,7.59259259 23.0332056,7 21.6130268,7 C18.8952746,7 16.688378,9.20689655 16.688378,11.9246488 C16.688378,12.3128991 16.7292465,12.6909323 16.8212005,13.0485313 C12.7241379,12.844189 9.09706258,10.8825032 6.66538953,7.899106 C6.24648787,8.62452107 6.00127714,9.47254151 6.00127714,10.3716475 C6.00127714,12.0779055 6.8697318,13.5900383 8.19795658,14.4687101 C7.3908046,14.4482759 6.63473819,14.2234994 5.9706258,13.8556833 C5.9706258,13.8761175 5.9706258,13.8965517 5.9706258,13.916986 C5.9706258,16.3077905 7.66666667,18.2899106 9.92464879,18.7496807 C9.51596424,18.862069 9.07662835,18.9233716 8.62707535,18.9233716 C8.31034483,18.9233716 8.00383142,18.8927203 7.69731801,18.8314176 C8.32056194,20.7931034 10.1392082,22.2132822 12.2950192,22.2541507 C10.6091954,23.5721584 8.48403576,24.3588761 6.17496807,24.3588761 C5.77650064,24.3588761 5.38825032,24.3384419 5,24.2873563 C7.15581098,25.697318 9.75095785,26.5146871 12.5300128,26.5146871 L12.5300128,26.5146871 Z" id="Path" fill="#9A9CA8"></path>
        </g>
    </g>
</svg>